<?xml version="1.0" standalone="no"?><!DOCTYPE svg PUBLIC "-//W3C//DTD SVG 1.1//EN" "http://www.w3.org/Graphics/SVG/1.1/DTD/svg11.dtd"><svg t="1753241948144" class="icon" viewBox="0 0 1024 1024" version="1.1" xmlns="http://www.w3.org/2000/svg" p-id="754" xmlns:xlink="http://www.w3.org/1999/xlink" width="200" height="200"><path d="M1023.950263 602.267063l-90.619612-41.262812c24.928549-213.05344-114.592914-412.284343-323.323611-461.740617L602.217326 0l-41.264275 90.568411c-213.00224-24.878811-412.233143 114.592914-461.689417 323.323612L0 421.6832l90.619611 41.262811C65.6896 675.999451 205.212526 875.230354 413.94176 924.686629l7.791177 99.263634 41.262812-90.569874c213.05344 24.930011 412.284343-114.592914 461.740617-323.322149L1024 602.267063h-0.049737zM492.046629 869.500343l85.141211-186.918034 101.374537 67.34848-28.598857-118.311498 204.760503-16.084114c-47.545783 157.71648-198.176183 263.213349-362.627657 253.915429l-0.049737 0.049737zM154.499657 492.096366l186.918034 85.141211-67.34848 101.374537 118.311498-28.597394 16.084114 204.75904C250.748343 807.227977 145.252937 656.59904 154.549394 492.147566l-0.049737-0.0512z m377.403977-337.596709l-85.141211 186.918034-101.374537-67.34848 28.597394 118.311498-204.75904 16.084114c47.545783-157.71648 198.17472-263.211886 362.626194-253.915429l0.0512-0.049737z m337.596709 377.403977l-186.918034-85.141211 67.34848-101.374537-118.311498 28.597394-16.084114-204.75904c157.71648 47.545783 263.213349 198.17472 253.915429 362.626194l0.049737 0.0512z m48.550766 51.716389l-53.375269-9.397394L512 512.049737l68.252526 97.50528-139.872549 308.547292 9.397394-53.376732 62.172892-352.67584-97.50528 68.253989-257.281463-116.604343-51.317029-23.269669 53.378195 9.398857L511.899063 512l-68.252526-97.50528 139.874012-308.545829-9.398858 53.375269L511.950263 512l97.503817-68.253989 308.547291 139.874012h0.049738z" fill="#3388bb" p-id="755"></path></svg>